<?xml version="1.0" encoding="UTF-8"?>
<svg xmlns="http://www.w3.org/2000/svg" xmlns:xlink="http://www.w3.org/1999/xlink" width="115.3pt" height="83.2pt" viewBox="0 0 115.3 83.2" version="1.1">
<defs>
<clipPath id="clip1">
  <path d="M 0 40 L 115.300781 40 L 115.300781 83.199219 L 0 83.199219 Z M 0 40 "/>
</clipPath>
</defs>
<g id="surface1">
<path style="fill:none;stroke-width:9.601;stroke-linecap:butt;stroke-linejoin:miter;stroke:rgb(20.384216%,21.556091%,58.789063%);stroke-opacity:1;stroke-miterlimit:4;" d="M 545.976563 323.992188 L 607.5 323.992188 C 611.484375 323.992188 611.445313 339.460938 607.5 341.0625 C 587.96875 348.953125 566.679688 349.773438 545.976563 341.0625 C 542.34375 339.539063 542.34375 323.992188 545.976563 323.992188 Z M 545.976563 323.992188 " transform="matrix(0.1,0,0,-0.1,0,83.2)"/>
<path style="fill:none;stroke-width:9.601;stroke-linecap:butt;stroke-linejoin:miter;stroke:rgb(20.384216%,21.556091%,58.789063%);stroke-opacity:1;stroke-miterlimit:4;" d="M 643.359375 597.234375 L 704.804688 680.007813 " transform="matrix(0.1,0,0,-0.1,0,83.2)"/>
<path style="fill:none;stroke-width:9.601;stroke-linecap:butt;stroke-linejoin:miter;stroke:rgb(20.384216%,21.556091%,58.789063%);stroke-opacity:1;stroke-miterlimit:4;" d="M 657.929688 571.570313 L 739.804688 637.351563 " transform="matrix(0.1,0,0,-0.1,0,83.2)"/>
<path style="fill:none;stroke-width:9.601;stroke-linecap:butt;stroke-linejoin:miter;stroke:rgb(20.384216%,21.556091%,58.789063%);stroke-opacity:1;stroke-miterlimit:4;" d="M 670.742188 548.875 L 761.484375 588.09375 " transform="matrix(0.1,0,0,-0.1,0,83.2)"/>
<path style="fill:none;stroke-width:9.601;stroke-linecap:butt;stroke-linejoin:miter;stroke:rgb(20.384216%,21.556091%,58.789063%);stroke-opacity:1;stroke-miterlimit:4;" d="M 685 523.835938 L 772.382813 536.882813 " transform="matrix(0.1,0,0,-0.1,0,83.2)"/>
<path style="fill:none;stroke-width:9.601;stroke-linecap:butt;stroke-linejoin:miter;stroke:rgb(20.384216%,21.556091%,58.789063%);stroke-opacity:1;stroke-miterlimit:4;" d="M 697.265625 493.640625 L 772.539063 485.046875 " transform="matrix(0.1,0,0,-0.1,0,83.2)"/>
<path style="fill:none;stroke-width:9.601;stroke-linecap:butt;stroke-linejoin:miter;stroke:rgb(20.384216%,21.556091%,58.789063%);stroke-opacity:1;stroke-miterlimit:4;" d="M 703.203125 457.039063 L 761.953125 433.914063 " transform="matrix(0.1,0,0,-0.1,0,83.2)"/>
<path style="fill:none;stroke-width:9.601;stroke-linecap:butt;stroke-linejoin:miter;stroke:rgb(20.384216%,21.556091%,58.789063%);stroke-opacity:1;stroke-miterlimit:4;" d="M 695.15625 418.367188 L 740.820313 384.578125 " transform="matrix(0.1,0,0,-0.1,0,83.2)"/>
<path style="fill:none;stroke-width:9.601;stroke-linecap:butt;stroke-linejoin:miter;stroke:rgb(20.384216%,21.556091%,58.789063%);stroke-opacity:1;stroke-miterlimit:4;" d="M 671.25 386.0625 L 706.523438 342.234375 " transform="matrix(0.1,0,0,-0.1,0,83.2)"/>
<path style="fill:none;stroke-width:9.601;stroke-linecap:butt;stroke-linejoin:miter;stroke:rgb(20.384216%,21.556091%,58.789063%);stroke-opacity:1;stroke-miterlimit:4;" d="M 636.484375 364.109375 L 661.171875 308.328125 " transform="matrix(0.1,0,0,-0.1,0,83.2)"/>
<path style="fill:none;stroke-width:9.601;stroke-linecap:butt;stroke-linejoin:miter;stroke:rgb(20.384216%,21.556091%,58.789063%);stroke-opacity:1;stroke-miterlimit:4;" d="M 514.53125 362.039063 L 493.085938 306.726563 " transform="matrix(0.1,0,0,-0.1,0,83.2)"/>
<path style="fill:none;stroke-width:9.601;stroke-linecap:butt;stroke-linejoin:miter;stroke:rgb(20.384216%,21.556091%,58.789063%);stroke-opacity:1;stroke-miterlimit:4;" d="M 480.546875 386.375 L 446.640625 340.359375 " transform="matrix(0.1,0,0,-0.1,0,83.2)"/>
<path style="fill:none;stroke-width:9.601;stroke-linecap:butt;stroke-linejoin:miter;stroke:rgb(20.384216%,21.556091%,58.789063%);stroke-opacity:1;stroke-miterlimit:4;" d="M 456.328125 418.953125 L 411.40625 383.210938 " transform="matrix(0.1,0,0,-0.1,0,83.2)"/>
<path style="fill:none;stroke-width:9.601;stroke-linecap:butt;stroke-linejoin:miter;stroke:rgb(20.384216%,21.556091%,58.789063%);stroke-opacity:1;stroke-miterlimit:4;" d="M 446.992188 457.390625 L 389.726563 432.46875 " transform="matrix(0.1,0,0,-0.1,0,83.2)"/>
<path style="fill:none;stroke-width:9.601;stroke-linecap:butt;stroke-linejoin:miter;stroke:rgb(20.384216%,21.556091%,58.789063%);stroke-opacity:1;stroke-miterlimit:4;" d="M 455.234375 495.085938 L 378.828125 483.679688 " transform="matrix(0.1,0,0,-0.1,0,83.2)"/>
<path style="fill:none;stroke-width:9.601;stroke-linecap:butt;stroke-linejoin:miter;stroke:rgb(20.384216%,21.556091%,58.789063%);stroke-opacity:1;stroke-miterlimit:4;" d="M 466.40625 525.515625 L 378.671875 535.515625 " transform="matrix(0.1,0,0,-0.1,0,83.2)"/>
<path style="fill:none;stroke-width:9.601;stroke-linecap:butt;stroke-linejoin:miter;stroke:rgb(20.384216%,21.556091%,58.789063%);stroke-opacity:1;stroke-miterlimit:4;" d="M 478.75 550.4375 L 389.257813 586.648438 " transform="matrix(0.1,0,0,-0.1,0,83.2)"/>
<path style="fill:none;stroke-width:9.601;stroke-linecap:butt;stroke-linejoin:miter;stroke:rgb(20.384216%,21.556091%,58.789063%);stroke-opacity:1;stroke-miterlimit:4;" d="M 492.851563 574.304688 L 411.210938 635.359375 " transform="matrix(0.1,0,0,-0.1,0,83.2)"/>
<path style="fill:none;stroke-width:9.601;stroke-linecap:butt;stroke-linejoin:miter;stroke:rgb(20.384216%,21.556091%,58.789063%);stroke-opacity:1;stroke-miterlimit:4;" d="M 509.140625 598.25 L 445.390625 679.03125 " transform="matrix(0.1,0,0,-0.1,0,83.2)"/>
<path style="fill:none;stroke-width:9.601;stroke-linecap:butt;stroke-linejoin:miter;stroke:rgb(20.384216%,21.556091%,58.789063%);stroke-opacity:1;stroke-miterlimit:4;" d="M 530.78125 620.359375 L 491.015625 712.742188 " transform="matrix(0.1,0,0,-0.1,0,83.2)"/>
<path style="fill:none;stroke-width:9.601;stroke-linecap:butt;stroke-linejoin:miter;stroke:rgb(20.384216%,21.556091%,58.789063%);stroke-opacity:1;stroke-miterlimit:4;" d="M 557.304688 648.875 L 545 731.453125 " transform="matrix(0.1,0,0,-0.1,0,83.2)"/>
<path style="fill:none;stroke-width:9.601;stroke-linecap:butt;stroke-linejoin:miter;stroke:rgb(20.384216%,21.556091%,58.789063%);stroke-opacity:1;stroke-miterlimit:4;" d="M 594.0625 646.6875 L 604.21875 731.804688 " transform="matrix(0.1,0,0,-0.1,0,83.2)"/>
<path style="fill:none;stroke-width:9.601;stroke-linecap:butt;stroke-linejoin:miter;stroke:rgb(20.384216%,21.556091%,58.789063%);stroke-opacity:1;stroke-miterlimit:4;" d="M 622.539063 622.039063 L 658.28125 713.757813 " transform="matrix(0.1,0,0,-0.1,0,83.2)"/>
<path style="fill:none;stroke-width:9.601;stroke-linecap:butt;stroke-linejoin:miter;stroke:rgb(20.384216%,21.556091%,58.789063%);stroke-opacity:1;stroke-miterlimit:4;" d="M 575.585938 668.484375 L 575.742188 770.4375 " transform="matrix(0.1,0,0,-0.1,0,83.2)"/>
<path style="fill:none;stroke-width:9.601;stroke-linecap:butt;stroke-linejoin:miter;stroke:rgb(20.384216%,21.556091%,58.789063%);stroke-opacity:1;stroke-miterlimit:4;" d="M 609.648438 637.585938 L 642.421875 759.304688 " transform="matrix(0.1,0,0,-0.1,0,83.2)"/>
<path style="fill:none;stroke-width:9.601;stroke-linecap:butt;stroke-linejoin:miter;stroke:rgb(20.384216%,21.556091%,58.789063%);stroke-opacity:1;stroke-miterlimit:4;" d="M 633.789063 611.21875 L 701.445313 728.09375 " transform="matrix(0.1,0,0,-0.1,0,83.2)"/>
<path style="fill:none;stroke-width:9.601;stroke-linecap:butt;stroke-linejoin:miter;stroke:rgb(20.384216%,21.556091%,58.789063%);stroke-opacity:1;stroke-miterlimit:4;" d="M 651.71875 586.492188 L 748.125 682.664063 " transform="matrix(0.1,0,0,-0.1,0,83.2)"/>
<path style="fill:none;stroke-width:9.601;stroke-linecap:butt;stroke-linejoin:miter;stroke:rgb(20.384216%,21.556091%,58.789063%);stroke-opacity:1;stroke-miterlimit:4;" d="M 668.515625 563.992188 L 780.78125 628.640625 " transform="matrix(0.1,0,0,-0.1,0,83.2)"/>
<path style="fill:none;stroke-width:9.601;stroke-linecap:butt;stroke-linejoin:miter;stroke:rgb(20.384216%,21.556091%,58.789063%);stroke-opacity:1;stroke-miterlimit:4;" d="M 682.421875 538.992188 L 799.765625 570.28125 " transform="matrix(0.1,0,0,-0.1,0,83.2)"/>
<path style="fill:none;stroke-width:9.601;stroke-linecap:butt;stroke-linejoin:miter;stroke:rgb(20.384216%,21.556091%,58.789063%);stroke-opacity:1;stroke-miterlimit:4;" d="M 696.484375 510.28125 L 805.9375 510.125 " transform="matrix(0.1,0,0,-0.1,0,83.2)"/>
<path style="fill:none;stroke-width:9.601;stroke-linecap:butt;stroke-linejoin:miter;stroke:rgb(20.384216%,21.556091%,58.789063%);stroke-opacity:1;stroke-miterlimit:4;" d="M 703.398438 476.0625 L 799.765625 450.125 " transform="matrix(0.1,0,0,-0.1,0,83.2)"/>
<path style="fill:none;stroke-width:9.601;stroke-linecap:butt;stroke-linejoin:miter;stroke:rgb(20.384216%,21.556091%,58.789063%);stroke-opacity:1;stroke-miterlimit:4;" d="M 705.625 435.242188 L 780.703125 391.765625 " transform="matrix(0.1,0,0,-0.1,0,83.2)"/>
<path style="fill:none;stroke-width:9.601;stroke-linecap:butt;stroke-linejoin:miter;stroke:rgb(20.384216%,21.556091%,58.789063%);stroke-opacity:1;stroke-miterlimit:4;" d="M 688.75 397.15625 L 748.007813 337.742188 " transform="matrix(0.1,0,0,-0.1,0,83.2)"/>
<path style="fill:none;stroke-width:9.601;stroke-linecap:butt;stroke-linejoin:miter;stroke:rgb(20.384216%,21.556091%,58.789063%);stroke-opacity:1;stroke-miterlimit:4;" d="M 655.703125 370.789063 L 701.328125 292.273438 " transform="matrix(0.1,0,0,-0.1,0,83.2)"/>
<path style="fill:none;stroke-width:9.601;stroke-linecap:butt;stroke-linejoin:miter;stroke:rgb(20.384216%,21.556091%,58.789063%);stroke-opacity:1;stroke-miterlimit:4;" d="M 617.578125 353.875 L 642.226563 261.179688 " transform="matrix(0.1,0,0,-0.1,0,83.2)"/>
<path style="fill:none;stroke-width:9.601;stroke-linecap:butt;stroke-linejoin:miter;stroke:rgb(20.384216%,21.556091%,58.789063%);stroke-opacity:1;stroke-miterlimit:4;" d="M 534.296875 355.28125 L 508.75 261.257813 " transform="matrix(0.1,0,0,-0.1,0,83.2)"/>
<path style="fill:none;stroke-width:9.601;stroke-linecap:butt;stroke-linejoin:miter;stroke:rgb(20.384216%,21.556091%,58.789063%);stroke-opacity:1;stroke-miterlimit:4;" d="M 496.679688 373.09375 L 449.6875 292.390625 " transform="matrix(0.1,0,0,-0.1,0,83.2)"/>
<path style="fill:none;stroke-width:9.601;stroke-linecap:butt;stroke-linejoin:miter;stroke:rgb(20.384216%,21.556091%,58.789063%);stroke-opacity:1;stroke-miterlimit:4;" d="M 466.289063 400.046875 L 403.085938 337.898438 " transform="matrix(0.1,0,0,-0.1,0,83.2)"/>
<path style="fill:none;stroke-width:9.601;stroke-linecap:butt;stroke-linejoin:miter;stroke:rgb(20.384216%,21.556091%,58.789063%);stroke-opacity:1;stroke-miterlimit:4;" d="M 448.203125 436.6875 L 370.429688 391.921875 " transform="matrix(0.1,0,0,-0.1,0,83.2)"/>
<path style="fill:none;stroke-width:9.601;stroke-linecap:butt;stroke-linejoin:miter;stroke:rgb(20.384216%,21.556091%,58.789063%);stroke-opacity:1;stroke-miterlimit:4;" d="M 449.804688 476.53125 L 351.40625 450.28125 " transform="matrix(0.1,0,0,-0.1,0,83.2)"/>
<path style="fill:none;stroke-width:9.601;stroke-linecap:butt;stroke-linejoin:miter;stroke:rgb(20.384216%,21.556091%,58.789063%);stroke-opacity:1;stroke-miterlimit:4;" d="M 456.015625 510.28125 L 345.234375 510.4375 " transform="matrix(0.1,0,0,-0.1,0,83.2)"/>
<path style="fill:none;stroke-width:9.601;stroke-linecap:butt;stroke-linejoin:miter;stroke:rgb(20.384216%,21.556091%,58.789063%);stroke-opacity:1;stroke-miterlimit:4;" d="M 466.679688 539.382813 L 351.523438 570.398438 " transform="matrix(0.1,0,0,-0.1,0,83.2)"/>
<path style="fill:none;stroke-width:9.601;stroke-linecap:butt;stroke-linejoin:miter;stroke:rgb(20.384216%,21.556091%,58.789063%);stroke-opacity:1;stroke-miterlimit:4;" d="M 482.890625 563.71875 L 369.882813 629.148438 " transform="matrix(0.1,0,0,-0.1,0,83.2)"/>
<path style="fill:none;stroke-width:9.601;stroke-linecap:butt;stroke-linejoin:miter;stroke:rgb(20.384216%,21.556091%,58.789063%);stroke-opacity:1;stroke-miterlimit:4;" d="M 499.53125 586.257813 L 403.203125 682.820313 " transform="matrix(0.1,0,0,-0.1,0,83.2)"/>
<path style="fill:none;stroke-width:9.601;stroke-linecap:butt;stroke-linejoin:miter;stroke:rgb(20.384216%,21.556091%,58.789063%);stroke-opacity:1;stroke-miterlimit:4;" d="M 517.890625 610.125 L 449.6875 728.5625 " transform="matrix(0.1,0,0,-0.1,0,83.2)"/>
<path style="fill:none;stroke-width:9.601;stroke-linecap:butt;stroke-linejoin:miter;stroke:rgb(20.384216%,21.556091%,58.789063%);stroke-opacity:1;stroke-miterlimit:4;" d="M 541.835938 636.140625 L 508.984375 759.382813 " transform="matrix(0.1,0,0,-0.1,0,83.2)"/>
<path style=" stroke:none;fill-rule:evenodd;fill:rgb(20.384216%,21.556091%,58.789063%);fill-opacity:1;" d="M 55.554688 59.566406 L 56.492188 59.566406 L 56.492188 53.191406 L 55.554688 53.191406 Z M 55.554688 59.566406 "/>
<path style=" stroke:none;fill-rule:evenodd;fill:rgb(20.384216%,21.556091%,58.789063%);fill-opacity:1;" d="M 58.871094 53.214844 L 59.808594 53.214844 L 59.808594 59.527344 C 59.503906 59.5625 59.195313 59.585938 58.875 59.597656 Z M 58.871094 53.214844 "/>
<path style=" stroke:none;fill-rule:evenodd;fill:rgb(3.137207%,69.334412%,93.359375%);fill-opacity:1;" d="M 76.78125 40.679688 L 79.59375 40.679688 C 79.59375 52.792969 69.789063 62.410156 57.671875 62.410156 C 45.554688 62.410156 35.730469 52.8125 35.730469 40.695313 L 38.542969 40.695313 C 38.542969 51.261719 47.109375 59.601563 57.671875 59.601563 C 68.234375 59.601563 76.78125 51.242188 76.78125 40.679688 Z M 76.78125 40.679688 "/>
<path style=" stroke:none;fill-rule:evenodd;fill:rgb(20.384216%,21.556091%,58.789063%);fill-opacity:1;" d="M 80.78125 40.6875 L 94.496094 40.6875 C 94.496094 61.015625 78.019531 77.492188 57.691406 77.492188 C 37.367188 77.492188 20.886719 61.015625 20.886719 40.6875 L 34.605469 40.6875 C 34.605469 53.4375 44.941406 63.773438 57.691406 63.773438 C 70.441406 63.773438 80.78125 53.4375 80.78125 40.6875 Z M 80.78125 40.6875 "/>
<g clip-path="url(#clip1)" clip-rule="nonzero">
<path style=" stroke:none;fill-rule:evenodd;fill:rgb(3.137207%,69.334412%,93.359375%);fill-opacity:1;" d="M 57.703125 83.128906 C 41.984375 83.128906 28.257813 74.59375 20.90625 61.90625 L 16.347656 69.417969 L 16.761719 55.542969 L 0.09375 65.011719 L 15.65625 40.617188 L 19.691406 40.632813 C 19.691406 61.625 36.699219 78.640625 57.691406 78.640625 C 78.683594 78.640625 95.703125 61.625 95.703125 40.632813 L 99.738281 40.617188 L 115.304688 65.011719 L 98.636719 55.542969 L 99.046875 69.417969 L 94.488281 61.90625 C 87.136719 74.59375 73.421875 83.128906 57.703125 83.128906 Z M 57.703125 83.128906 "/>
</g>
<path style=" stroke:none;fill-rule:evenodd;fill:rgb(20.384216%,21.556091%,58.789063%);fill-opacity:1;" d="M 20.84375 38.089844 L 17.203125 37.625 L 17.351563 36.445313 C 17.410156 36 17.464844 35.710938 17.519531 35.582031 C 17.601563 35.378906 17.742188 35.21875 17.941406 35.101563 C 18.144531 34.984375 18.386719 34.945313 18.679688 34.980469 C 18.902344 35.007813 19.085938 35.074219 19.226563 35.171875 C 19.367188 35.273438 19.476563 35.390625 19.546875 35.527344 C 19.617188 35.664063 19.660156 35.796875 19.671875 35.929688 C 19.683594 36.109375 19.667969 36.367188 19.625 36.699219 L 19.566406 37.175781 L 20.9375 37.351563 Z M 17.914063 36.964844 L 18.949219 37.097656 L 19 36.699219 C 19.039063 36.410156 19.042969 36.214844 19.015625 36.109375 C 18.992188 36.007813 18.941406 35.925781 18.867188 35.859375 C 18.792969 35.792969 18.703125 35.753906 18.59375 35.742188 C 18.460938 35.722656 18.34375 35.75 18.25 35.816406 C 18.152344 35.882813 18.085938 35.972656 18.050781 36.089844 C 18.023438 36.175781 17.992188 36.347656 17.957031 36.613281 Z M 21.308594 34.707031 L 17.695313 34.0625 L 17.96875 32.523438 C 18.039063 32.140625 18.121094 31.863281 18.21875 31.699219 C 18.3125 31.535156 18.453125 31.417969 18.640625 31.339844 C 18.824219 31.265625 19.023438 31.246094 19.238281 31.285156 C 19.507813 31.332031 19.71875 31.453125 19.867188 31.644531 C 20.015625 31.832031 20.082031 32.089844 20.074219 32.414063 C 20.191406 32.273438 20.316406 32.164063 20.445313 32.082031 C 20.574219 31.996094 20.792969 31.894531 21.105469 31.769531 L 21.890625 31.457031 L 21.734375 32.328125 L 20.851563 32.710938 C 20.539063 32.847656 20.339844 32.945313 20.253906 33.003906 C 20.167969 33.058594 20.105469 33.125 20.0625 33.195313 C 20.023438 33.269531 19.988281 33.390625 19.957031 33.558594 L 19.929688 33.707031 L 21.441406 33.976563 Z M 19.355469 33.601563 L 19.453125 33.0625 C 19.515625 32.714844 19.539063 32.492188 19.523438 32.398438 C 19.511719 32.308594 19.472656 32.230469 19.40625 32.167969 C 19.34375 32.105469 19.257813 32.066406 19.148438 32.046875 C 19.027344 32.023438 18.925781 32.039063 18.835938 32.089844 C 18.75 32.140625 18.6875 32.226563 18.648438 32.339844 C 18.628906 32.398438 18.589844 32.574219 18.539063 32.871094 L 18.4375 33.4375 Z M 20.222656 30.644531 C 19.871094 30.523438 19.589844 30.371094 19.382813 30.183594 C 19.234375 30.042969 19.109375 29.882813 19.015625 29.699219 C 18.921875 29.511719 18.867188 29.328125 18.855469 29.140625 C 18.835938 28.894531 18.875 28.628906 18.96875 28.34375 C 19.144531 27.832031 19.441406 27.476563 19.863281 27.273438 C 20.289063 27.074219 20.78125 27.070313 21.351563 27.265625 C 21.914063 27.453125 22.300781 27.757813 22.515625 28.167969 C 22.730469 28.582031 22.75 29.042969 22.578125 29.554688 C 22.402344 30.070313 22.105469 30.429688 21.683594 30.628906 C 21.265625 30.828125 20.777344 30.832031 20.222656 30.644531 Z M 20.445313 29.914063 C 20.839844 30.046875 21.167969 30.054688 21.433594 29.945313 C 21.699219 29.828125 21.878906 29.632813 21.972656 29.351563 C 22.070313 29.070313 22.046875 28.808594 21.90625 28.558594 C 21.765625 28.3125 21.492188 28.117188 21.089844 27.980469 C 20.6875 27.847656 20.363281 27.832031 20.105469 27.941406 C 19.851563 28.050781 19.671875 28.25 19.574219 28.539063 C 19.476563 28.832031 19.496094 29.097656 19.636719 29.34375 C 19.773438 29.585938 20.042969 29.777344 20.445313 29.914063 Z M 22.71875 25.136719 L 22.152344 24.882813 L 22.808594 23.425781 L 24.144531 24.03125 C 24.21875 24.234375 24.246094 24.492188 24.230469 24.808594 C 24.214844 25.125 24.144531 25.421875 24.019531 25.695313 C 23.859375 26.046875 23.648438 26.316406 23.386719 26.511719 C 23.121094 26.703125 22.820313 26.804688 22.488281 26.8125 C 22.15625 26.816406 21.828125 26.75 21.507813 26.605469 C 21.15625 26.445313 20.882813 26.230469 20.675781 25.964844 C 20.46875 25.695313 20.359375 25.386719 20.339844 25.039063 C 20.328125 24.773438 20.390625 24.484375 20.535156 24.164063 C 20.722656 23.75 20.957031 23.464844 21.238281 23.308594 C 21.519531 23.15625 21.828125 23.113281 22.164063 23.1875 L 21.988281 23.917969 C 21.800781 23.890625 21.632813 23.917969 21.476563 24.007813 C 21.324219 24.09375 21.203125 24.234375 21.113281 24.429688 C 20.980469 24.722656 20.96875 25 21.078125 25.257813 C 21.1875 25.515625 21.425781 25.726563 21.792969 25.894531 C 22.191406 26.074219 22.53125 26.121094 22.808594 26.035156 C 23.085938 25.949219 23.292969 25.761719 23.421875 25.476563 C 23.484375 25.335938 23.519531 25.183594 23.527344 25.015625 C 23.539063 24.847656 23.523438 24.695313 23.492188 24.558594 L 23.066406 24.367188 Z M 24.90625 23.625 L 21.722656 21.792969 L 22.503906 20.441406 C 22.699219 20.101563 22.867188 19.871094 23.015625 19.746094 C 23.160156 19.625 23.332031 19.5625 23.53125 19.550781 C 23.730469 19.542969 23.925781 19.59375 24.113281 19.703125 C 24.351563 19.839844 24.507813 20.023438 24.585938 20.25 C 24.660156 20.480469 24.636719 20.746094 24.519531 21.046875 C 24.679688 20.957031 24.832031 20.894531 24.980469 20.859375 C 25.128906 20.824219 25.375 20.800781 25.707031 20.792969 L 26.554688 20.761719 L 26.109375 21.527344 L 25.152344 21.589844 C 24.808594 21.613281 24.589844 21.636719 24.488281 21.664063 C 24.390625 21.6875 24.308594 21.726563 24.246094 21.78125 C 24.183594 21.835938 24.109375 21.9375 24.023438 22.085938 L 23.949219 22.214844 L 25.277344 22.980469 Z M 23.441406 21.921875 L 23.714844 21.449219 C 23.890625 21.140625 23.988281 20.941406 24.007813 20.847656 C 24.023438 20.757813 24.015625 20.671875 23.976563 20.589844 C 23.9375 20.511719 23.871094 20.441406 23.773438 20.386719 C 23.667969 20.324219 23.5625 20.304688 23.464844 20.324219 C 23.367188 20.34375 23.277344 20.402344 23.203125 20.496094 C 23.164063 20.542969 23.070313 20.695313 22.921875 20.957031 L 22.632813 21.457031 Z M 26.742188 20.464844 L 23.75 18.335938 L 25.328125 16.121094 L 25.832031 16.480469 L 24.6875 18.089844 L 25.351563 18.5625 L 26.414063 17.066406 L 26.921875 17.425781 L 25.859375 18.921875 L 26.667969 19.5 L 27.855469 17.832031 L 28.359375 18.191406 Z M 27.730469 17.035156 L 28.148438 16.441406 C 28.359375 16.566406 28.550781 16.617188 28.722656 16.589844 C 28.894531 16.566406 29.054688 16.464844 29.203125 16.296875 C 29.359375 16.117188 29.4375 15.949219 29.441406 15.792969 C 29.441406 15.632813 29.394531 15.511719 29.289063 15.421875 C 29.226563 15.367188 29.152344 15.335938 29.074219 15.335938 C 28.996094 15.332031 28.894531 15.367188 28.78125 15.433594 C 28.699219 15.476563 28.53125 15.589844 28.273438 15.773438 C 27.9375 16.007813 27.664063 16.136719 27.449219 16.164063 C 27.148438 16.203125 26.890625 16.125 26.667969 15.933594 C 26.527344 15.8125 26.429688 15.65625 26.375 15.46875 C 26.320313 15.28125 26.328125 15.085938 26.394531 14.878906 C 26.457031 14.671875 26.582031 14.464844 26.769531 14.25 C 27.070313 13.902344 27.371094 13.710938 27.679688 13.667969 C 27.984375 13.625 28.269531 13.710938 28.535156 13.925781 L 28.066406 14.503906 C 27.902344 14.40625 27.757813 14.367188 27.625 14.390625 C 27.496094 14.414063 27.363281 14.503906 27.226563 14.660156 C 27.085938 14.824219 27.011719 14.976563 27 15.128906 C 26.992188 15.222656 27.023438 15.304688 27.09375 15.367188 C 27.160156 15.421875 27.242188 15.445313 27.335938 15.429688 C 27.457031 15.410156 27.667969 15.292969 27.96875 15.078125 C 28.265625 14.859375 28.507813 14.71875 28.691406 14.648438 C 28.871094 14.578125 29.054688 14.554688 29.238281 14.585938 C 29.421875 14.617188 29.601563 14.707031 29.773438 14.859375 C 29.933594 14.996094 30.042969 15.167969 30.105469 15.378906 C 30.167969 15.585938 30.164063 15.800781 30.09375 16.019531 C 30.019531 16.242188 29.878906 16.472656 29.671875 16.710938 C 29.367188 17.0625 29.050781 17.261719 28.726563 17.308594 C 28.402344 17.359375 28.070313 17.265625 27.730469 17.035156 Z M 30.058594 14.347656 L 30.535156 13.796875 C 30.734375 13.941406 30.917969 14.011719 31.09375 14 C 31.265625 13.992188 31.433594 13.910156 31.597656 13.753906 C 31.769531 13.589844 31.863281 13.429688 31.882813 13.273438 C 31.898438 13.117188 31.863281 12.992188 31.769531 12.894531 C 31.707031 12.832031 31.640625 12.792969 31.5625 12.785156 C 31.480469 12.777344 31.382813 12.800781 31.257813 12.855469 C 31.175781 12.890625 30.996094 12.988281 30.722656 13.144531 C 30.367188 13.347656 30.082031 13.449219 29.867188 13.457031 C 29.5625 13.464844 29.3125 13.363281 29.109375 13.152344 C 28.980469 13.015625 28.898438 12.851563 28.863281 12.660156 C 28.828125 12.46875 28.851563 12.277344 28.9375 12.078125 C 29.019531 11.878906 29.164063 11.679688 29.367188 11.488281 C 29.703125 11.171875 30.023438 11.003906 30.332031 10.992188 C 30.640625 10.980469 30.914063 11.09375 31.160156 11.332031 L 30.640625 11.863281 C 30.484375 11.75 30.34375 11.695313 30.210938 11.707031 C 30.078125 11.71875 29.9375 11.796875 29.785156 11.9375 C 29.632813 12.085938 29.542969 12.234375 29.515625 12.382813 C 29.5 12.476563 29.523438 12.558594 29.589844 12.628906 C 29.648438 12.691406 29.726563 12.71875 29.824219 12.714844 C 29.945313 12.707031 30.164063 12.609375 30.484375 12.421875 C 30.804688 12.234375 31.058594 12.117188 31.242188 12.0625 C 31.433594 12.011719 31.617188 12.007813 31.796875 12.054688 C 31.976563 12.101563 32.144531 12.210938 32.304688 12.378906 C 32.449219 12.527344 32.542969 12.710938 32.585938 12.925781 C 32.628906 13.140625 32.601563 13.351563 32.507813 13.566406 C 32.417969 13.777344 32.253906 13.992188 32.023438 14.214844 C 31.6875 14.53125 31.355469 14.703125 31.027344 14.71875 C 30.699219 14.734375 30.378906 14.613281 30.058594 14.347656 Z M 35.257813 11.308594 L 33.371094 8.910156 L 32.515625 9.582031 L 32.132813 9.09375 L 34.425781 7.296875 L 34.808594 7.785156 L 33.957031 8.453125 L 35.84375 10.851563 Z M 37.09375 9.953125 L 35.113281 6.863281 L 35.738281 6.460938 L 36.519531 7.675781 L 37.738281 6.898438 L 36.957031 5.679688 L 37.582031 5.277344 L 39.566406 8.371094 L 38.9375 8.769531 L 38.074219 7.417969 L 36.855469 8.199219 L 37.722656 9.550781 Z M 40.253906 8.035156 L 38.578125 4.765625 L 39.96875 4.054688 C 40.316406 3.875 40.585938 3.777344 40.773438 3.753906 C 40.964844 3.730469 41.144531 3.769531 41.316406 3.871094 C 41.488281 3.972656 41.625 4.121094 41.722656 4.3125 C 41.847656 4.558594 41.878906 4.796875 41.816406 5.03125 C 41.757813 5.265625 41.59375 5.476563 41.328125 5.664063 C 41.511719 5.671875 41.675781 5.703125 41.820313 5.757813 C 41.964844 5.808594 42.179688 5.921875 42.464844 6.097656 L 43.191406 6.53125 L 42.402344 6.933594 L 41.5625 6.460938 C 41.265625 6.296875 41.066406 6.195313 40.96875 6.164063 C 40.875 6.128906 40.785156 6.117188 40.703125 6.128906 C 40.617188 6.140625 40.5 6.183594 40.347656 6.261719 L 40.214844 6.332031 L 40.914063 7.695313 Z M 39.949219 5.8125 L 40.4375 5.5625 C 40.753906 5.398438 40.945313 5.285156 41.007813 5.21875 C 41.074219 5.152344 41.113281 5.070313 41.121094 4.984375 C 41.132813 4.894531 41.113281 4.800781 41.0625 4.703125 C 41.007813 4.59375 40.933594 4.519531 40.839844 4.480469 C 40.746094 4.445313 40.640625 4.445313 40.527344 4.480469 C 40.46875 4.5 40.304688 4.582031 40.039063 4.714844 L 39.523438 4.980469 Z M 42.890625 4.726563 C 42.769531 4.371094 42.722656 4.054688 42.746094 3.777344 C 42.765625 3.574219 42.820313 3.378906 42.910156 3.191406 C 43 3.003906 43.113281 2.847656 43.253906 2.722656 C 43.4375 2.558594 43.671875 2.429688 43.957031 2.332031 C 44.46875 2.160156 44.933594 2.179688 45.351563 2.394531 C 45.765625 2.609375 46.070313 3 46.261719 3.566406 C 46.453125 4.128906 46.449219 4.621094 46.25 5.042969 C 46.050781 5.464844 45.695313 5.761719 45.1875 5.933594 C 44.667969 6.109375 44.203125 6.089844 43.792969 5.875 C 43.378906 5.664063 43.078125 5.28125 42.890625 4.726563 Z M 43.605469 4.457031 C 43.738281 4.851563 43.933594 5.117188 44.183594 5.261719 C 44.433594 5.402344 44.699219 5.425781 44.980469 5.332031 C 45.261719 5.238281 45.457031 5.058594 45.570313 4.792969 C 45.679688 4.53125 45.667969 4.199219 45.53125 3.792969 C 45.398438 3.394531 45.207031 3.128906 44.964844 2.992188 C 44.726563 2.851563 44.460938 2.832031 44.167969 2.933594 C 43.878906 3.03125 43.679688 3.207031 43.570313 3.46875 C 43.457031 3.726563 43.472656 4.054688 43.605469 4.457031 Z M 46.535156 1.519531 L 47.257813 1.351563 L 47.707031 3.289063 C 47.777344 3.597656 47.832031 3.796875 47.871094 3.882813 C 47.9375 4.019531 48.035156 4.121094 48.171875 4.183594 C 48.308594 4.246094 48.476563 4.253906 48.675781 4.207031 C 48.878906 4.160156 49.019531 4.085938 49.105469 3.976563 C 49.1875 3.871094 49.226563 3.753906 49.21875 3.625 C 49.210938 3.5 49.175781 3.292969 49.109375 3.011719 L 48.652344 1.03125 L 49.378906 0.863281 L 49.8125 2.742188 C 49.910156 3.171875 49.960938 3.480469 49.964844 3.667969 C 49.964844 3.855469 49.929688 4.019531 49.851563 4.167969 C 49.777344 4.3125 49.660156 4.441406 49.5 4.554688 C 49.339844 4.667969 49.121094 4.757813 48.839844 4.824219 C 48.5 4.902344 48.230469 4.921875 48.039063 4.882813 C 47.84375 4.84375 47.679688 4.773438 47.550781 4.671875 C 47.417969 4.570313 47.320313 4.453125 47.257813 4.320313 C 47.160156 4.128906 47.066406 3.828125 46.976563 3.429688 Z M 52.492188 2.65625 L 52.414063 2.042969 L 53.996094 1.839844 L 54.179688 3.292969 C 54.046875 3.464844 53.839844 3.621094 53.5625 3.773438 C 53.285156 3.925781 52.996094 4.019531 52.695313 4.058594 C 52.316406 4.105469 51.972656 4.070313 51.667969 3.945313 C 51.367188 3.820313 51.125 3.617188 50.945313 3.339844 C 50.765625 3.058594 50.652344 2.742188 50.605469 2.394531 C 50.558594 2.011719 50.597656 1.664063 50.71875 1.347656 C 50.839844 1.035156 51.042969 0.777344 51.328125 0.582031 C 51.546875 0.429688 51.828125 0.332031 52.175781 0.289063 C 52.628906 0.230469 52.992188 0.28125 53.273438 0.4375 C 53.550781 0.597656 53.746094 0.839844 53.863281 1.164063 L 53.148438 1.394531 C 53.074219 1.222656 52.960938 1.09375 52.804688 1.007813 C 52.652344 0.921875 52.46875 0.890625 52.257813 0.917969 C 51.9375 0.960938 51.691406 1.09375 51.53125 1.324219 C 51.367188 1.550781 51.3125 1.867188 51.363281 2.265625 C 51.417969 2.699219 51.554688 3.011719 51.773438 3.203125 C 51.992188 3.394531 52.257813 3.472656 52.570313 3.433594 C 52.722656 3.414063 52.871094 3.363281 53.019531 3.285156 C 53.167969 3.203125 53.289063 3.113281 53.390625 3.011719 L 53.332031 2.550781 Z M 54.90625 3.734375 L 54.816406 0.0664063 L 55.558594 0.046875 L 55.59375 1.492188 L 57.039063 1.457031 L 57.003906 0.0117188 L 57.746094 -0.0078125 L 57.839844 3.660156 L 57.097656 3.679688 L 57.054688 2.074219 L 55.609375 2.113281 L 55.652344 3.714844 Z M 63.070313 3.601563 C 63.234375 3.753906 63.417969 3.878906 63.617188 3.984375 L 63.28125 4.472656 C 63.175781 4.425781 63.074219 4.367188 62.972656 4.292969 C 62.953125 4.28125 62.804688 4.152344 62.527344 3.90625 C 62.277344 3.980469 62.003906 4 61.714844 3.964844 C 61.15625 3.894531 60.738281 3.671875 60.460938 3.300781 C 60.1875 2.929688 60.085938 2.445313 60.164063 1.847656 C 60.238281 1.253906 60.457031 0.808594 60.816406 0.519531 C 61.175781 0.226563 61.628906 0.117188 62.175781 0.1875 C 62.714844 0.253906 63.121094 0.476563 63.394531 0.847656 C 63.667969 1.21875 63.769531 1.699219 63.695313 2.296875 C 63.652344 2.609375 63.574219 2.882813 63.457031 3.109375 C 63.367188 3.285156 63.238281 3.449219 63.070313 3.601563 Z M 62.53125 3.113281 C 62.640625 3.011719 62.726563 2.886719 62.796875 2.734375 C 62.863281 2.582031 62.910156 2.40625 62.933594 2.203125 C 62.988281 1.78125 62.9375 1.453125 62.777344 1.222656 C 62.617188 0.988281 62.390625 0.855469 62.089844 0.816406 C 61.789063 0.777344 61.53125 0.851563 61.320313 1.039063 C 61.105469 1.222656 60.972656 1.527344 60.921875 1.945313 C 60.867188 2.375 60.917969 2.703125 61.078125 2.941406 C 61.238281 3.175781 61.460938 3.3125 61.746094 3.347656 C 61.851563 3.359375 61.953125 3.355469 62.054688 3.332031 C 61.917969 3.21875 61.773438 3.121094 61.628906 3.046875 L 61.890625 2.648438 C 62.117188 2.761719 62.332031 2.914063 62.53125 3.113281 Z M 64.839844 0.558594 L 65.566406 0.726563 L 65.117188 2.664063 C 65.046875 2.972656 65.007813 3.175781 65.007813 3.269531 C 65.003906 3.421875 65.046875 3.558594 65.144531 3.671875 C 65.238281 3.789063 65.386719 3.867188 65.585938 3.914063 C 65.789063 3.960938 65.949219 3.957031 66.074219 3.894531 C 66.195313 3.835938 66.28125 3.746094 66.328125 3.628906 C 66.378906 3.511719 66.4375 3.3125 66.503906 3.027344 L 66.957031 1.046875 L 67.683594 1.214844 L 67.25 3.097656 C 67.148438 3.527344 67.0625 3.824219 66.980469 3.992188 C 66.902344 4.160156 66.792969 4.296875 66.660156 4.394531 C 66.527344 4.492188 66.367188 4.554688 66.175781 4.589844 C 65.984375 4.621094 65.746094 4.605469 65.464844 4.539063 C 65.125 4.460938 64.875 4.363281 64.714844 4.242188 C 64.558594 4.121094 64.445313 3.988281 64.371094 3.835938 C 64.296875 3.6875 64.261719 3.539063 64.261719 3.394531 C 64.261719 3.179688 64.308594 2.871094 64.398438 2.46875 Z M 70.789063 6 L 70.03125 5.746094 L 70 4.851563 L 68.605469 4.378906 L 68.046875 5.074219 L 67.300781 4.820313 L 69.828125 1.800781 L 70.574219 2.050781 Z M 69.96875 4.1875 L 69.921875 2.734375 L 69.015625 3.863281 Z M 71.160156 6.164063 L 72.660156 2.847656 L 73.335938 3.152344 L 72.09375 5.90625 L 73.769531 6.664063 L 73.515625 7.226563 Z M 73.984375 7.441406 L 75.660156 4.175781 L 76.320313 4.511719 L 74.648438 7.78125 Z M 75.988281 8.496094 L 77.507813 5.851563 L 76.566406 5.308594 L 76.875 4.773438 L 79.398438 6.222656 L 79.089844 6.761719 L 78.152344 6.222656 L 76.632813 8.867188 Z M 78.757813 10.261719 L 79.65625 9.003906 L 79.789063 6.492188 L 80.5 6.996094 L 80.363281 8.683594 L 81.894531 7.988281 L 82.589844 8.480469 L 80.257813 9.4375 L 79.367188 10.695313 Z M 81.769531 12.515625 L 84.304688 9.859375 L 86.269531 11.734375 L 85.839844 12.183594 L 84.414063 10.820313 L 83.851563 11.410156 L 85.179688 12.675781 L 84.75 13.125 L 83.421875 11.859375 L 82.734375 12.578125 L 84.214844 13.992188 L 83.789063 14.441406 Z M 87.066406 12.496094 L 87.953125 13.515625 C 88.152344 13.746094 88.285156 13.9375 88.355469 14.089844 C 88.449219 14.292969 88.484375 14.507813 88.460938 14.726563 C 88.441406 14.949219 88.367188 15.167969 88.242188 15.382813 C 88.117188 15.597656 87.925781 15.816406 87.664063 16.039063 C 87.4375 16.238281 87.214844 16.378906 87 16.46875 C 86.738281 16.574219 86.488281 16.617188 86.253906 16.59375 C 86.074219 16.582031 85.886719 16.511719 85.691406 16.394531 C 85.542969 16.304688 85.382813 16.15625 85.203125 15.949219 L 84.292969 14.898438 Z M 87.085938 13.460938 L 85.25 15.054688 L 85.609375 15.472656 C 85.742188 15.625 85.851563 15.730469 85.925781 15.785156 C 86.027344 15.855469 86.132813 15.898438 86.238281 15.910156 C 86.34375 15.921875 86.476563 15.894531 86.632813 15.824219 C 86.789063 15.753906 86.976563 15.628906 87.191406 15.441406 C 87.40625 15.253906 87.550781 15.09375 87.632813 14.957031 C 87.714844 14.820313 87.761719 14.691406 87.765625 14.566406 C 87.769531 14.441406 87.742188 14.320313 87.671875 14.195313 C 87.621094 14.101563 87.5 13.941406 87.300781 13.714844 Z M 89.675781 15.5625 L 90.109375 16.167969 L 88.488281 17.320313 C 88.230469 17.503906 88.066406 17.628906 88.003906 17.699219 C 87.898438 17.8125 87.84375 17.941406 87.835938 18.089844 C 87.832031 18.242188 87.886719 18.398438 88.007813 18.566406 C 88.128906 18.734375 88.253906 18.839844 88.386719 18.875 C 88.515625 18.910156 88.640625 18.902344 88.753906 18.847656 C 88.867188 18.792969 89.042969 18.679688 89.28125 18.511719 L 90.9375 17.335938 L 91.367188 17.941406 L 89.792969 19.058594 C 89.433594 19.3125 89.167969 19.480469 89 19.550781 C 88.828125 19.625 88.660156 19.652344 88.492188 19.640625 C 88.328125 19.625 88.164063 19.566406 88 19.460938 C 87.835938 19.359375 87.667969 19.1875 87.5 18.953125 C 87.300781 18.667969 87.179688 18.429688 87.140625 18.234375 C 87.101563 18.039063 87.105469 17.863281 87.148438 17.703125 C 87.195313 17.542969 87.265625 17.40625 87.363281 17.296875 C 87.503906 17.136719 87.746094 16.9375 88.078125 16.699219 Z M 91.214844 22.046875 L 91.382813 22.777344 C 90.976563 22.882813 90.625 22.875 90.328125 22.75 C 90.027344 22.625 89.78125 22.390625 89.585938 22.050781 C 89.34375 21.625 89.285156 21.195313 89.417969 20.757813 C 89.550781 20.320313 89.867188 19.957031 90.371094 19.667969 C 90.898438 19.363281 91.390625 19.261719 91.839844 19.367188 C 92.292969 19.472656 92.644531 19.75 92.902344 20.195313 C 93.125 20.585938 93.191406 20.96875 93.101563 21.34375 C 93.046875 21.566406 92.914063 21.789063 92.703125 22.007813 L 92.183594 21.457031 C 92.328125 21.324219 92.414063 21.171875 92.441406 20.996094 C 92.464844 20.824219 92.429688 20.648438 92.332031 20.480469 C 92.195313 20.242188 92 20.101563 91.746094 20.050781 C 91.492188 20 91.175781 20.085938 90.796875 20.304688 C 90.398438 20.535156 90.152344 20.769531 90.0625 21.015625 C 89.976563 21.257813 90 21.496094 90.132813 21.726563 C 90.230469 21.898438 90.371094 22.015625 90.550781 22.074219 C 90.730469 22.136719 90.949219 22.125 91.214844 22.046875 Z M 92.058594 26.945313 L 91.730469 26.214844 L 92.359375 25.582031 L 91.753906 24.238281 L 90.867188 24.304688 L 90.542969 23.589844 L 94.472656 23.375 L 94.796875 24.089844 Z M 92.824219 25.105469 L 93.851563 24.082031 L 92.410156 24.1875 Z M 92.351563 27.699219 L 95.242188 26.722656 L 94.894531 25.691406 L 95.480469 25.492188 L 96.414063 28.253906 L 95.828125 28.453125 L 95.480469 27.425781 L 92.589844 28.40625 Z M 93.039063 29.875 L 96.574219 28.871094 L 96.777344 29.585938 L 93.242188 30.589844 Z M 95.160156 30.730469 C 95.527344 30.644531 95.84375 30.628906 96.117188 30.679688 C 96.320313 30.71875 96.507813 30.792969 96.6875 30.902344 C 96.863281 31.007813 97.007813 31.136719 97.117188 31.289063 C 97.261719 31.492188 97.367188 31.738281 97.4375 32.027344 C 97.558594 32.554688 97.492188 33.015625 97.238281 33.40625 C 96.980469 33.800781 96.5625 34.0625 95.980469 34.199219 C 95.402344 34.332031 94.910156 34.277344 94.511719 34.039063 C 94.113281 33.800781 93.851563 33.417969 93.730469 32.894531 C 93.609375 32.363281 93.671875 31.898438 93.925781 31.511719 C 94.179688 31.121094 94.589844 30.859375 95.160156 30.730469 Z M 95.355469 31.46875 C 94.953125 31.5625 94.667969 31.726563 94.5 31.960938 C 94.332031 32.199219 94.285156 32.460938 94.351563 32.75 C 94.417969 33.039063 94.574219 33.25 94.824219 33.386719 C 95.078125 33.523438 95.410156 33.546875 95.824219 33.449219 C 96.234375 33.355469 96.519531 33.195313 96.679688 32.96875 C 96.84375 32.742188 96.886719 32.476563 96.820313 32.179688 C 96.75 31.882813 96.59375 31.664063 96.34375 31.527344 C 96.097656 31.394531 95.769531 31.375 95.355469 31.46875 Z M 94.203125 35.191406 L 97.84375 34.726563 L 97.933594 35.441406 L 95.683594 37.25 L 98.125 36.941406 L 98.210938 37.621094 L 94.570313 38.085938 L 94.476563 37.347656 L 96.683594 35.566406 L 94.289063 35.871094 Z M 94.203125 35.191406 "/>
<path style=" stroke:none;fill-rule:evenodd;fill:rgb(3.137207%,69.334412%,93.359375%);fill-opacity:1;" d="M 57.6875 15.117188 C 104.078125 59.589844 11.292969 59.589844 57.6875 15.117188 Z M 57.6875 15.117188 "/>
<path style=" stroke:none;fill-rule:evenodd;fill:rgb(100%,100%,100%);fill-opacity:1;" d="M 45.90625 37.175781 L 46.730469 37.035156 C 46.78125 37.507813 46.878906 37.851563 47.03125 38.074219 C 47.179688 38.296875 47.382813 38.40625 47.640625 38.40625 C 47.910156 38.40625 48.113281 38.308594 48.25 38.109375 C 48.386719 37.914063 48.457031 37.683594 48.457031 37.421875 C 48.457031 37.25 48.429688 37.105469 48.371094 36.988281 C 48.3125 36.867188 48.210938 36.765625 48.066406 36.679688 C 47.96875 36.617188 47.746094 36.515625 47.394531 36.367188 C 46.945313 36.171875 46.628906 35.9375 46.449219 35.652344 C 46.191406 35.257813 46.066406 34.777344 46.066406 34.207031 C 46.066406 33.84375 46.125 33.5 46.246094 33.183594 C 46.367188 32.863281 46.539063 32.621094 46.765625 32.457031 C 46.992188 32.289063 47.265625 32.207031 47.585938 32.207031 C 48.105469 32.207031 48.5 32.402344 48.765625 32.800781 C 49.027344 33.199219 49.167969 33.730469 49.179688 34.394531 L 48.335938 34.445313 C 48.296875 34.074219 48.222656 33.8125 48.105469 33.648438 C 47.988281 33.488281 47.808594 33.40625 47.574219 33.40625 C 47.332031 33.40625 47.140625 33.492188 47.003906 33.664063 C 46.914063 33.777344 46.871094 33.925781 46.871094 34.113281 C 46.871094 34.28125 46.910156 34.425781 46.996094 34.546875 C 47.101563 34.703125 47.359375 34.863281 47.769531 35.027344 C 48.179688 35.195313 48.480469 35.367188 48.675781 35.542969 C 48.871094 35.722656 49.027344 35.964844 49.136719 36.273438 C 49.25 36.582031 49.304688 36.960938 49.304688 37.414063 C 49.304688 37.824219 49.238281 38.207031 49.105469 38.566406 C 48.972656 38.925781 48.78125 39.191406 48.539063 39.363281 C 48.296875 39.539063 47.992188 39.625 47.628906 39.625 C 47.101563 39.625 46.695313 39.417969 46.414063 39 C 46.128906 38.582031 45.960938 37.972656 45.90625 37.175781 Z M 53.785156 39.496094 L 52.875 39.496094 L 52.511719 37.867188 L 50.835938 37.867188 L 50.488281 39.496094 L 49.59375 39.496094 L 51.21875 32.335938 L 52.113281 32.335938 Z M 52.238281 36.65625 L 51.65625 34.003906 L 51.09375 36.65625 Z M 54.015625 37.175781 L 54.835938 37.035156 C 54.886719 37.507813 54.984375 37.851563 55.136719 38.074219 C 55.285156 38.296875 55.492188 38.40625 55.746094 38.40625 C 56.015625 38.40625 56.222656 38.308594 56.359375 38.109375 C 56.496094 37.914063 56.5625 37.683594 56.5625 37.421875 C 56.5625 37.25 56.535156 37.105469 56.476563 36.988281 C 56.421875 36.867188 56.320313 36.765625 56.175781 36.679688 C 56.078125 36.617188 55.851563 36.515625 55.503906 36.367188 C 55.050781 36.171875 54.738281 35.9375 54.554688 35.652344 C 54.300781 35.257813 54.171875 34.777344 54.171875 34.207031 C 54.171875 33.84375 54.230469 33.5 54.351563 33.183594 C 54.472656 32.863281 54.644531 32.621094 54.871094 32.457031 C 55.097656 32.289063 55.371094 32.207031 55.691406 32.207031 C 56.214844 32.207031 56.609375 32.402344 56.871094 32.800781 C 57.136719 33.199219 57.273438 33.730469 57.289063 34.394531 L 56.441406 34.445313 C 56.40625 34.074219 56.328125 33.8125 56.210938 33.648438 C 56.09375 33.488281 55.917969 33.40625 55.679688 33.40625 C 55.4375 33.40625 55.246094 33.492188 55.109375 33.664063 C 55.019531 33.777344 54.976563 33.925781 54.976563 34.113281 C 54.976563 34.28125 55.019531 34.425781 55.101563 34.546875 C 55.207031 34.703125 55.464844 34.863281 55.875 35.027344 C 56.285156 35.195313 56.585938 35.367188 56.78125 35.542969 C 56.980469 35.722656 57.132813 35.964844 57.242188 36.273438 C 57.355469 36.582031 57.410156 36.960938 57.410156 37.414063 C 57.410156 37.824219 57.34375 38.207031 57.210938 38.566406 C 57.078125 38.925781 56.890625 39.191406 56.648438 39.363281 C 56.402344 39.539063 56.101563 39.625 55.738281 39.625 C 55.210938 39.625 54.804688 39.417969 54.519531 39 C 54.238281 38.582031 54.070313 37.972656 54.015625 37.175781 Z M 59.066406 39.496094 L 59.066406 33.546875 L 57.832031 33.546875 L 57.832031 32.335938 L 61.144531 32.335938 L 61.144531 33.546875 L 59.914063 33.546875 L 59.914063 39.496094 Z M 61.691406 39.496094 L 61.691406 32.335938 L 63.46875 32.335938 C 63.917969 32.335938 64.242188 32.402344 64.441406 32.527344 C 64.644531 32.65625 64.808594 32.886719 64.929688 33.214844 C 65.050781 33.542969 65.113281 33.917969 65.113281 34.34375 C 65.113281 34.878906 65.019531 35.324219 64.835938 35.675781 C 64.652344 36.023438 64.378906 36.242188 64.011719 36.335938 C 64.195313 36.515625 64.34375 36.71875 64.460938 36.9375 C 64.582031 37.152344 64.742188 37.542969 64.941406 38.097656 L 65.449219 39.496094 L 64.441406 39.496094 L 63.835938 37.933594 C 63.621094 37.378906 63.472656 37.027344 63.390625 36.882813 C 63.3125 36.738281 63.226563 36.640625 63.136719 36.585938 C 63.046875 36.53125 62.90625 36.503906 62.710938 36.503906 L 62.539063 36.503906 L 62.539063 39.496094 Z M 62.539063 35.367188 L 63.164063 35.367188 C 63.566406 35.367188 63.820313 35.335938 63.921875 35.277344 C 64.019531 35.21875 64.101563 35.117188 64.15625 34.972656 C 64.214844 34.832031 64.242188 34.652344 64.242188 34.4375 C 64.242188 34.195313 64.203125 34 64.128906 33.851563 C 64.054688 33.703125 63.949219 33.609375 63.8125 33.570313 C 63.742188 33.554688 63.539063 33.546875 63.199219 33.546875 L 62.539063 33.546875 Z M 69.671875 39.496094 L 68.761719 39.496094 L 68.398438 37.867188 L 66.722656 37.867188 L 66.375 39.496094 L 65.480469 39.496094 L 67.101563 32.335938 L 67.996094 32.335938 Z M 68.125 36.65625 L 67.542969 34.003906 L 66.980469 36.65625 Z M 68.125 36.65625 "/>
<path style=" stroke:none;fill-rule:evenodd;fill:rgb(100%,100%,100%);fill-opacity:1;" d="M 24.210938 49.730469 L 24.113281 49.1875 L 24.644531 48.867188 L 24.46875 47.863281 L 23.859375 47.757813 L 23.765625 47.21875 L 26.445313 47.746094 L 26.539063 48.28125 Z M 25.039063 48.628906 L 25.90625 48.113281 L 24.917969 47.941406 Z M 24.269531 49.992188 L 26.71875 49.296875 L 27.011719 50.339844 C 27.085938 50.601563 27.121094 50.796875 27.109375 50.929688 C 27.097656 51.0625 27.046875 51.175781 26.957031 51.28125 C 26.863281 51.382813 26.746094 51.457031 26.601563 51.496094 C 26.417969 51.550781 26.25 51.539063 26.097656 51.464844 C 25.949219 51.390625 25.828125 51.253906 25.734375 51.046875 C 25.703125 51.171875 25.660156 51.277344 25.605469 51.367188 C 25.550781 51.457031 25.445313 51.589844 25.285156 51.761719 L 24.894531 52.195313 L 24.726563 51.605469 L 25.160156 51.097656 C 25.3125 50.917969 25.410156 50.796875 25.445313 50.734375 C 25.480469 50.675781 25.5 50.613281 25.503906 50.558594 C 25.507813 50.5 25.492188 50.414063 25.460938 50.300781 L 25.433594 50.199219 L 24.410156 50.488281 Z M 25.824219 50.089844 L 25.925781 50.453125 C 25.992188 50.691406 26.046875 50.835938 26.082031 50.890625 C 26.117188 50.941406 26.167969 50.980469 26.226563 51 C 26.285156 51.019531 26.351563 51.019531 26.421875 50.996094 C 26.507813 50.972656 26.566406 50.933594 26.605469 50.875 C 26.644531 50.816406 26.65625 50.746094 26.648438 50.660156 C 26.640625 50.617188 26.609375 50.496094 26.554688 50.296875 L 26.445313 49.910156 Z M 25.183594 53.019531 L 27.1875 52.34375 L 26.945313 51.628906 L 27.355469 51.492188 L 28 53.40625 L 27.59375 53.542969 L 27.351563 52.832031 L 25.347656 53.507813 Z M 26.445313 54.070313 L 26.671875 54.519531 C 26.527344 54.609375 26.4375 54.710938 26.398438 54.824219 C 26.359375 54.941406 26.367188 55.070313 26.421875 55.214844 C 26.484375 55.367188 26.5625 55.46875 26.65625 55.523438 C 26.753906 55.574219 26.84375 55.582031 26.933594 55.550781 C 26.988281 55.527344 27.027344 55.492188 27.054688 55.445313 C 27.082031 55.394531 27.09375 55.324219 27.089844 55.230469 C 27.089844 55.167969 27.074219 55.027344 27.042969 54.8125 C 27.007813 54.53125 27.015625 54.320313 27.066406 54.179688 C 27.140625 53.984375 27.273438 53.847656 27.460938 53.773438 C 27.582031 53.726563 27.707031 53.714844 27.839844 53.742188 C 27.972656 53.769531 28.089844 53.835938 28.195313 53.941406 C 28.300781 54.050781 28.390625 54.195313 28.460938 54.375 C 28.578125 54.671875 28.601563 54.921875 28.527344 55.121094 C 28.457031 55.324219 28.3125 55.472656 28.09375 55.566406 L 27.890625 55.09375 C 28.003906 55.023438 28.074219 54.945313 28.101563 54.859375 C 28.128906 54.769531 28.117188 54.660156 28.0625 54.527344 C 28.007813 54.386719 27.9375 54.289063 27.851563 54.234375 C 27.792969 54.199219 27.734375 54.195313 27.671875 54.21875 C 27.617188 54.242188 27.578125 54.285156 27.554688 54.347656 C 27.527344 54.425781 27.535156 54.59375 27.570313 54.847656 C 27.605469 55.101563 27.617188 55.296875 27.601563 55.429688 C 27.585938 55.5625 27.539063 55.683594 27.464844 55.785156 C 27.386719 55.886719 27.273438 55.96875 27.125 56.027344 C 26.988281 56.082031 26.847656 56.09375 26.699219 56.066406 C 26.550781 56.035156 26.417969 55.964844 26.308594 55.847656 C 26.195313 55.734375 26.097656 55.574219 26.019531 55.367188 C 25.902344 55.070313 25.878906 54.8125 25.953125 54.597656 C 26.027344 54.382813 26.191406 54.207031 26.445313 54.070313 Z M 27.089844 56.480469 L 27.289063 56.925781 L 26.96875 57.070313 C 26.84375 57.128906 26.734375 57.164063 26.652344 57.175781 C 26.566406 57.1875 26.480469 57.175781 26.394531 57.140625 C 26.304688 57.105469 26.226563 57.046875 26.148438 56.96875 L 26.292969 56.796875 C 26.363281 56.875 26.433594 56.917969 26.503906 56.933594 C 26.570313 56.945313 26.648438 56.933594 26.742188 56.894531 L 26.644531 56.683594 Z M 28.195313 57.9375 L 28.488281 58.347656 C 28.355469 58.457031 28.28125 58.570313 28.257813 58.6875 C 28.234375 58.808594 28.265625 58.933594 28.339844 59.070313 C 28.421875 59.210938 28.515625 59.304688 28.617188 59.339844 C 28.71875 59.378906 28.8125 59.375 28.894531 59.328125 C 28.945313 59.296875 28.980469 59.257813 29 59.203125 C 29.019531 59.152344 29.019531 59.082031 29.003906 58.992188 C 28.992188 58.929688 28.957031 58.792969 28.894531 58.582031 C 28.820313 58.308594 28.796875 58.097656 28.828125 57.953125 C 28.871094 57.75 28.980469 57.59375 29.15625 57.496094 C 29.269531 57.429688 29.394531 57.402344 29.527344 57.40625 C 29.664063 57.414063 29.789063 57.464844 29.910156 57.554688 C 30.03125 57.644531 30.136719 57.773438 30.234375 57.941406 C 30.394531 58.21875 30.453125 58.460938 30.410156 58.671875 C 30.367188 58.882813 30.246094 59.050781 30.046875 59.171875 L 29.773438 58.734375 C 29.875 58.652344 29.933594 58.5625 29.949219 58.472656 C 29.960938 58.382813 29.933594 58.273438 29.863281 58.148438 C 29.789063 58.019531 29.703125 57.9375 29.609375 57.894531 C 29.546875 57.867188 29.488281 57.871094 29.429688 57.902344 C 29.378906 57.933594 29.347656 57.980469 29.335938 58.046875 C 29.320313 58.128906 29.347656 58.292969 29.421875 58.539063 C 29.496094 58.785156 29.53125 58.976563 29.539063 59.109375 C 29.542969 59.246094 29.515625 59.371094 29.453125 59.484375 C 29.390625 59.597656 29.292969 59.691406 29.152344 59.773438 C 29.027344 59.84375 28.886719 59.878906 28.734375 59.871094 C 28.585938 59.863281 28.445313 59.8125 28.320313 59.714844 C 28.191406 59.617188 28.074219 59.472656 27.960938 59.28125 C 27.800781 59.003906 27.742188 58.75 27.785156 58.527344 C 27.828125 58.304688 27.964844 58.109375 28.195313 57.9375 Z M 30.402344 61.296875 L 30.566406 61.792969 C 30.292969 61.890625 30.050781 61.910156 29.835938 61.84375 C 29.621094 61.777344 29.4375 61.632813 29.277344 61.410156 C 29.082031 61.132813 29.015625 60.839844 29.078125 60.527344 C 29.140625 60.21875 29.335938 59.945313 29.660156 59.710938 C 30.007813 59.46875 30.339844 59.367188 30.65625 59.410156 C 30.976563 59.453125 31.238281 59.617188 31.445313 59.910156 C 31.625 60.164063 31.695313 60.421875 31.65625 60.6875 C 31.636719 60.84375 31.558594 61.007813 31.425781 61.171875 L 31.03125 60.828125 C 31.121094 60.726563 31.171875 60.617188 31.179688 60.492188 C 31.183594 60.371094 31.148438 60.253906 31.070313 60.144531 C 30.960938 59.988281 30.816406 59.902344 30.636719 59.886719 C 30.460938 59.867188 30.246094 59.949219 30 60.121094 C 29.738281 60.308594 29.585938 60.488281 29.539063 60.664063 C 29.496094 60.835938 29.527344 61 29.636719 61.148438 C 29.714844 61.261719 29.816406 61.332031 29.945313 61.363281 C 30.074219 61.390625 30.226563 61.371094 30.402344 61.296875 Z M 30.195313 62.589844 L 32.195313 61.019531 L 32.515625 61.421875 L 30.511719 62.996094 Z M 30.777344 63.414063 L 32.699219 61.746094 L 33.933594 63.171875 L 33.609375 63.453125 L 32.714844 62.417969 L 32.285156 62.789063 L 33.117188 63.75 L 32.792969 64.03125 L 31.960938 63.070313 L 31.4375 63.519531 L 32.367188 64.59375 L 32.042969 64.875 Z M 32.339844 65.21875 L 34.183594 63.460938 L 34.527344 63.824219 L 34.011719 65.757813 L 35.25 64.582031 L 35.578125 64.925781 L 33.734375 66.683594 L 33.378906 66.308594 L 33.878906 64.410156 L 32.667969 65.5625 Z M 35.949219 67.40625 L 36.226563 67.847656 C 35.984375 68.007813 35.753906 68.082031 35.53125 68.070313 C 35.304688 68.054688 35.089844 67.960938 34.886719 67.78125 C 34.628906 67.558594 34.496094 67.289063 34.480469 66.972656 C 34.46875 66.65625 34.59375 66.34375 34.855469 66.042969 C 35.132813 65.722656 35.433594 65.542969 35.75 65.511719 C 36.070313 65.476563 36.363281 65.578125 36.632813 65.808594 C 36.871094 66.015625 37 66.25 37.027344 66.515625 C 37.042969 66.675781 37.003906 66.851563 36.914063 67.042969 L 36.453125 66.800781 C 36.515625 66.679688 36.535156 66.5625 36.515625 66.441406 C 36.492188 66.320313 36.429688 66.214844 36.324219 66.125 C 36.183594 66.003906 36.023438 65.953125 35.84375 65.980469 C 35.667969 66.003906 35.480469 66.132813 35.28125 66.359375 C 35.070313 66.601563 34.964844 66.8125 34.960938 66.992188 C 34.960938 67.171875 35.03125 67.320313 35.167969 67.445313 C 35.273438 67.535156 35.390625 67.578125 35.523438 67.578125 C 35.652344 67.574219 35.796875 67.519531 35.949219 67.40625 Z M 36.078125 68.710938 L 37.652344 66.710938 L 39.132813 67.875 L 38.867188 68.210938 L 37.789063 67.367188 L 37.441406 67.808594 L 38.441406 68.597656 L 38.175781 68.9375 L 37.175781 68.148438 L 36.746094 68.691406 L 37.863281 69.566406 L 37.597656 69.90625 Z M 38.226563 69.75 L 38.621094 70.03125 L 38.421875 70.316406 C 38.339844 70.433594 38.261719 70.515625 38.195313 70.570313 C 38.128906 70.621094 38.050781 70.652344 37.957031 70.667969 C 37.863281 70.679688 37.765625 70.671875 37.660156 70.644531 L 37.699219 70.421875 C 37.796875 70.453125 37.878906 70.457031 37.945313 70.433594 C 38.011719 70.414063 38.074219 70.363281 38.132813 70.28125 L 37.941406 70.148438 Z M 40.085938 71.558594 L 41.140625 69.726563 L 40.488281 69.351563 L 40.703125 68.976563 L 42.453125 69.984375 L 42.238281 70.359375 L 41.589844 69.984375 L 40.535156 71.816406 Z M 41.484375 72.328125 L 42.644531 70.0625 L 44.320313 70.921875 L 44.125 71.304688 L 42.90625 70.683594 L 42.648438 71.183594 L 43.78125 71.765625 L 43.585938 72.148438 L 42.453125 71.566406 L 42.140625 72.179688 L 43.402344 72.828125 L 43.203125 73.210938 Z M 45.441406 73.132813 L 45.847656 73.457031 C 45.671875 73.691406 45.476563 73.835938 45.261719 73.898438 C 45.046875 73.960938 44.8125 73.941406 44.558594 73.839844 C 44.246094 73.714844 44.027344 73.507813 43.910156 73.210938 C 43.792969 72.917969 43.808594 72.582031 43.953125 72.210938 C 44.109375 71.816406 44.332031 71.550781 44.621094 71.410156 C 44.914063 71.273438 45.222656 71.269531 45.554688 71.402344 C 45.84375 71.515625 46.046875 71.695313 46.160156 71.9375 C 46.226563 72.082031 46.25 72.257813 46.230469 72.46875 L 45.710938 72.394531 C 45.730469 72.261719 45.710938 72.140625 45.652344 72.035156 C 45.589844 71.929688 45.496094 71.851563 45.371094 71.800781 C 45.195313 71.734375 45.027344 71.738281 44.867188 71.820313 C 44.707031 71.90625 44.574219 72.085938 44.460938 72.367188 C 44.34375 72.667969 44.3125 72.902344 44.371094 73.070313 C 44.429688 73.242188 44.542969 73.359375 44.714844 73.429688 C 44.84375 73.476563 44.96875 73.480469 45.09375 73.4375 C 45.214844 73.390625 45.332031 73.292969 45.441406 73.132813 Z M 45.976563 74.355469 L 46.792969 71.945313 L 47.28125 72.109375 L 46.957031 73.058594 L 47.90625 73.382813 L 48.230469 72.433594 L 48.71875 72.597656 L 47.902344 75.007813 L 47.414063 74.84375 L 47.769531 73.789063 L 46.820313 73.46875 L 46.464844 74.519531 Z M 48.40625 75.183594 L 48.980469 72.703125 L 49.464844 72.816406 L 50.101563 74.714844 L 50.488281 73.050781 L 50.949219 73.160156 L 50.378906 75.640625 L 49.875 75.523438 L 49.25 73.660156 L 48.871094 75.292969 Z M 51.023438 74.484375 C 51.066406 74.226563 51.144531 74.019531 51.253906 73.859375 C 51.332031 73.742188 51.429688 73.640625 51.546875 73.558594 C 51.664063 73.472656 51.785156 73.417969 51.910156 73.390625 C 52.078125 73.351563 52.265625 73.351563 52.46875 73.386719 C 52.839844 73.453125 53.113281 73.621094 53.296875 73.890625 C 53.476563 74.160156 53.53125 74.5 53.457031 74.90625 C 53.382813 75.3125 53.21875 75.609375 52.957031 75.800781 C 52.695313 75.988281 52.378906 76.050781 52.011719 75.984375 C 51.640625 75.917969 51.363281 75.75 51.183594 75.484375 C 51.003906 75.21875 50.949219 74.882813 51.023438 74.484375 Z M 51.546875 74.558594 C 51.496094 74.84375 51.523438 75.070313 51.628906 75.242188 C 51.734375 75.410156 51.886719 75.515625 52.089844 75.550781 C 52.292969 75.585938 52.46875 75.542969 52.625 75.421875 C 52.78125 75.300781 52.886719 75.09375 52.9375 74.800781 C 52.988281 74.515625 52.964844 74.289063 52.863281 74.125 C 52.761719 73.960938 52.605469 73.859375 52.398438 73.824219 C 52.1875 73.785156 52.007813 73.828125 51.855469 73.945313 C 51.703125 74.066406 51.597656 74.269531 51.546875 74.558594 Z M 53.652344 76.214844 L 53.84375 73.695313 L 54.359375 73.734375 L 54.199219 75.824219 L 55.472656 75.917969 L 55.441406 76.347656 Z M 55.734375 75.117188 C 55.742188 74.859375 55.789063 74.640625 55.871094 74.464844 C 55.929688 74.335938 56.011719 74.222656 56.117188 74.121094 C 56.21875 74.023438 56.328125 73.949219 56.449219 73.902344 C 56.609375 73.839844 56.792969 73.808594 57 73.816406 C 57.378906 73.824219 57.675781 73.949219 57.894531 74.1875 C 58.113281 74.425781 58.21875 74.753906 58.207031 75.167969 C 58.195313 75.578125 58.074219 75.898438 57.847656 76.125 C 57.617188 76.351563 57.316406 76.460938 56.941406 76.453125 C 56.5625 76.441406 56.265625 76.320313 56.046875 76.082031 C 55.828125 75.84375 55.726563 75.523438 55.734375 75.117188 Z M 56.265625 75.113281 C 56.257813 75.402344 56.320313 75.621094 56.449219 75.773438 C 56.578125 75.925781 56.746094 76.003906 56.953125 76.011719 C 57.15625 76.015625 57.328125 75.945313 57.464844 75.800781 C 57.597656 75.65625 57.671875 75.4375 57.675781 75.140625 C 57.683594 74.851563 57.625 74.628906 57.5 74.484375 C 57.378906 74.335938 57.210938 74.261719 56.996094 74.253906 C 56.785156 74.25 56.613281 74.316406 56.476563 74.460938 C 56.34375 74.601563 56.273438 74.820313 56.265625 75.113281 Z M 59.683594 75.433594 L 59.652344 75.003906 L 60.753906 74.921875 L 60.832031 75.933594 C 60.734375 76.046875 60.585938 76.152344 60.386719 76.246094 C 60.191406 76.339844 59.984375 76.394531 59.777344 76.410156 C 59.511719 76.433594 59.277344 76.394531 59.070313 76.296875 C 58.867188 76.199219 58.707031 76.050781 58.589844 75.851563 C 58.476563 75.652344 58.410156 75.429688 58.390625 75.183594 C 58.371094 74.921875 58.40625 74.683594 58.503906 74.46875 C 58.597656 74.253906 58.746094 74.082031 58.953125 73.957031 C 59.109375 73.859375 59.308594 73.800781 59.550781 73.785156 C 59.863281 73.761719 60.117188 73.808594 60.304688 73.925781 C 60.492188 74.046875 60.617188 74.21875 60.6875 74.449219 L 60.183594 74.582031 C 60.140625 74.460938 60.0625 74.367188 59.960938 74.304688 C 59.855469 74.238281 59.730469 74.210938 59.582031 74.222656 C 59.359375 74.242188 59.1875 74.324219 59.066406 74.476563 C 58.945313 74.628906 58.894531 74.84375 58.917969 75.125 C 58.941406 75.425781 59.023438 75.648438 59.167969 75.789063 C 59.3125 75.929688 59.496094 75.992188 59.710938 75.972656 C 59.820313 75.964844 59.925781 75.9375 60.027344 75.886719 C 60.132813 75.835938 60.222656 75.777344 60.292969 75.710938 L 60.269531 75.390625 Z M 62.003906 76.144531 L 61.867188 75.082031 L 60.753906 73.738281 L 61.351563 73.664063 L 62.078125 74.585938 L 62.53125 73.511719 L 63.117188 73.4375 L 62.378906 75.023438 L 62.515625 76.082031 Z M 66.71875 74.933594 L 66.515625 75.367188 C 66.355469 75.332031 66.199219 75.269531 66.042969 75.179688 C 65.960938 75.292969 65.871094 75.382813 65.769531 75.449219 C 65.664063 75.519531 65.535156 75.570313 65.382813 75.609375 C 65.074219 75.679688 64.820313 75.644531 64.625 75.507813 C 64.472656 75.402344 64.378906 75.261719 64.335938 75.085938 C 64.300781 74.925781 64.3125 74.773438 64.378906 74.625 C 64.445313 74.476563 64.5625 74.332031 64.730469 74.195313 C 64.621094 74.113281 64.535156 74.03125 64.472656 73.953125 C 64.40625 73.871094 64.367188 73.789063 64.347656 73.707031 C 64.3125 73.558594 64.34375 73.417969 64.4375 73.285156 C 64.535156 73.152344 64.691406 73.058594 64.914063 73.007813 C 65.128906 72.960938 65.308594 72.976563 65.453125 73.058594 C 65.601563 73.136719 65.691406 73.257813 65.726563 73.417969 C 65.75 73.515625 65.742188 73.617188 65.703125 73.722656 C 65.667969 73.828125 65.570313 73.957031 65.417969 74.113281 L 65.863281 74.492188 C 65.886719 74.410156 65.898438 74.308594 65.902344 74.1875 L 66.355469 74.183594 C 66.347656 74.347656 66.335938 74.464844 66.320313 74.542969 C 66.304688 74.621094 66.285156 74.6875 66.261719 74.746094 C 66.324219 74.78125 66.40625 74.820313 66.503906 74.859375 C 66.601563 74.902344 66.671875 74.925781 66.71875 74.9375 Z M 65.113281 73.882813 L 65.214844 73.753906 C 65.292969 73.660156 65.324219 73.578125 65.308594 73.503906 C 65.292969 73.441406 65.257813 73.394531 65.203125 73.363281 C 65.148438 73.332031 65.082031 73.324219 65.003906 73.339844 C 64.929688 73.359375 64.875 73.390625 64.839844 73.4375 C 64.808594 73.488281 64.796875 73.535156 64.808594 73.585938 C 64.820313 73.644531 64.875 73.707031 64.964844 73.773438 Z M 65.046875 74.445313 C 64.949219 74.523438 64.882813 74.609375 64.847656 74.699219 C 64.8125 74.789063 64.800781 74.875 64.820313 74.957031 C 64.84375 75.058594 64.898438 75.136719 64.980469 75.1875 C 65.0625 75.234375 65.160156 75.246094 65.269531 75.222656 C 65.34375 75.203125 65.414063 75.171875 65.472656 75.128906 C 65.535156 75.082031 65.597656 75.015625 65.664063 74.929688 Z M 68.035156 74.828125 L 67.21875 72.417969 L 68.246094 72.070313 C 68.5 71.984375 68.695313 71.941406 68.828125 71.945313 C 68.960938 71.949219 69.078125 71.996094 69.1875 72.082031 C 69.292969 72.167969 69.371094 72.28125 69.421875 72.425781 C 69.480469 72.605469 69.480469 72.773438 69.414063 72.925781 C 69.347656 73.082031 69.214844 73.210938 69.015625 73.3125 C 69.140625 73.335938 69.25 73.375 69.339844 73.425781 C 69.433594 73.476563 69.570313 73.574219 69.75 73.722656 L 70.203125 74.09375 L 69.621094 74.292969 L 69.09375 73.882813 C 68.90625 73.738281 68.78125 73.648438 68.71875 73.617188 C 68.65625 73.585938 68.59375 73.566406 68.535156 73.566406 C 68.480469 73.566406 68.394531 73.585938 68.28125 73.625 L 68.183594 73.65625 L 68.523438 74.664063 Z M 68.050781 73.273438 L 68.414063 73.152344 C 68.644531 73.070313 68.789063 73.011719 68.839844 72.972656 C 68.890625 72.933594 68.925781 72.882813 68.941406 72.824219 C 68.957031 72.765625 68.953125 72.699219 68.929688 72.625 C 68.902344 72.546875 68.859375 72.488281 68.796875 72.453125 C 68.738281 72.417969 68.664063 72.40625 68.582031 72.417969 C 68.542969 72.425781 68.421875 72.464844 68.226563 72.53125 L 67.84375 72.660156 Z M 70.449219 73.988281 L 69.402344 71.667969 L 71.117188 70.890625 L 71.296875 71.285156 L 70.046875 71.847656 L 70.28125 72.363281 L 71.441406 71.839844 L 71.617188 72.230469 L 70.457031 72.753906 L 70.742188 73.382813 L 72.035156 72.796875 L 72.214844 73.191406 Z M 72.105469 72.34375 L 72.53125 72.070313 C 72.632813 72.207031 72.742188 72.289063 72.859375 72.316406 C 72.980469 72.34375 73.105469 72.324219 73.246094 72.25 C 73.390625 72.175781 73.488281 72.089844 73.53125 71.988281 C 73.570313 71.886719 73.570313 71.796875 73.53125 71.714844 C 73.5 71.660156 73.460938 71.621094 73.410156 71.601563 C 73.363281 71.578125 73.289063 71.574219 73.199219 71.585938 C 73.136719 71.59375 72.996094 71.625 72.78125 71.675781 C 72.507813 71.738281 72.296875 71.75 72.152344 71.710938 C 71.949219 71.660156 71.804688 71.542969 71.710938 71.363281 C 71.652344 71.246094 71.628906 71.121094 71.640625 70.988281 C 71.65625 70.851563 71.710938 70.726563 71.808594 70.613281 C 71.902344 70.496094 72.035156 70.394531 72.210938 70.304688 C 72.492188 70.160156 72.738281 70.113281 72.945313 70.167969 C 73.15625 70.21875 73.316406 70.347656 73.429688 70.554688 L 72.980469 70.804688 C 72.902344 70.699219 72.816406 70.636719 72.726563 70.617188 C 72.636719 70.597656 72.527344 70.625 72.398438 70.6875 C 72.269531 70.757813 72.179688 70.835938 72.132813 70.929688 C 72.101563 70.988281 72.101563 71.046875 72.132813 71.109375 C 72.160156 71.160156 72.207031 71.195313 72.269531 71.210938 C 72.355469 71.230469 72.519531 71.210938 72.769531 71.148438 C 73.015625 71.085938 73.210938 71.058594 73.34375 71.058594 C 73.480469 71.058594 73.601563 71.09375 73.710938 71.160156 C 73.820313 71.226563 73.914063 71.332031 73.988281 71.476563 C 74.054688 71.605469 74.078125 71.746094 74.066406 71.894531 C 74.050781 72.046875 73.992188 72.183594 73.890625 72.304688 C 73.785156 72.429688 73.636719 72.539063 73.4375 72.640625 C 73.152344 72.785156 72.898438 72.832031 72.675781 72.78125 C 72.457031 72.726563 72.265625 72.582031 72.105469 72.34375 Z M 74.714844 71.929688 L 73.339844 69.785156 L 74.925781 68.769531 L 75.15625 69.128906 L 74.003906 69.871094 L 74.308594 70.34375 L 75.382813 69.65625 L 75.613281 70.019531 L 74.542969 70.707031 L 74.914063 71.289063 L 76.109375 70.523438 L 76.339844 70.882813 Z M 78.589844 69.34375 L 78.136719 69.664063 L 77.621094 69.320313 L 76.789063 69.914063 L 76.953125 70.507813 L 76.511719 70.824219 L 75.839844 68.175781 L 76.285156 67.863281 Z M 77.238281 69.066406 L 76.402344 68.503906 L 76.667969 69.472656 Z M 78.8125 69.160156 L 77.144531 67.238281 L 77.960938 66.527344 C 78.167969 66.351563 78.332031 66.238281 78.457031 66.191406 C 78.578125 66.144531 78.707031 66.140625 78.839844 66.183594 C 78.972656 66.222656 79.085938 66.296875 79.1875 66.414063 C 79.3125 66.558594 79.371094 66.710938 79.371094 66.878906 C 79.367188 67.046875 79.292969 67.214844 79.144531 67.386719 C 79.269531 67.363281 79.386719 67.355469 79.492188 67.367188 C 79.597656 67.378906 79.761719 67.421875 79.980469 67.488281 L 80.542969 67.660156 L 80.078125 68.0625 L 79.433594 67.886719 C 79.207031 67.824219 79.054688 67.789063 78.984375 67.78125 C 78.914063 67.773438 78.851563 67.78125 78.800781 67.804688 C 78.746094 67.824219 78.671875 67.875 78.582031 67.953125 L 78.503906 68.019531 L 79.203125 68.824219 Z M 78.238281 67.714844 L 78.527344 67.464844 C 78.714844 67.304688 78.820313 67.195313 78.855469 67.140625 C 78.886719 67.082031 78.902344 67.023438 78.894531 66.964844 C 78.886719 66.902344 78.855469 66.84375 78.808594 66.785156 C 78.75 66.71875 78.6875 66.683594 78.621094 66.671875 C 78.550781 66.664063 78.480469 66.679688 78.40625 66.722656 C 78.371094 66.746094 78.277344 66.824219 78.117188 66.960938 L 77.816406 67.226563 Z M 81.296875 65.679688 L 81.761719 65.445313 C 81.898438 65.699219 81.953125 65.9375 81.917969 66.160156 C 81.882813 66.378906 81.765625 66.585938 81.570313 66.773438 C 81.324219 67.007813 81.042969 67.117188 80.726563 67.097656 C 80.410156 67.082031 80.113281 66.929688 79.835938 66.640625 C 79.542969 66.332031 79.394531 66.019531 79.390625 65.699219 C 79.386719 65.378906 79.515625 65.09375 79.773438 64.847656 C 80 64.632813 80.246094 64.523438 80.511719 64.523438 C 80.671875 64.523438 80.84375 64.574219 81.027344 64.683594 L 80.742188 65.121094 C 80.628906 65.046875 80.511719 65.015625 80.390625 65.027344 C 80.265625 65.035156 80.15625 65.089844 80.058594 65.183594 C 79.921875 65.3125 79.859375 65.46875 79.867188 65.648438 C 79.875 65.828125 79.984375 66.027344 80.191406 66.246094 C 80.414063 66.476563 80.613281 66.605469 80.792969 66.621094 C 80.96875 66.640625 81.125 66.585938 81.261719 66.457031 C 81.359375 66.363281 81.414063 66.25 81.425781 66.121094 C 81.4375 65.988281 81.394531 65.84375 81.296875 65.679688 Z M 82.605469 65.722656 L 80.679688 64.054688 L 81.019531 63.667969 L 81.777344 64.324219 L 82.429688 63.566406 L 81.671875 62.910156 L 82.011719 62.519531 L 83.9375 64.183594 L 83.597656 64.574219 L 82.757813 63.847656 L 82.101563 64.605469 L 82.941406 65.332031 Z M 86.164063 61.242188 L 85.839844 61.695313 L 85.242188 61.539063 L 84.652344 62.371094 L 85 62.878906 L 84.683594 63.324219 L 83.183594 61.042969 L 83.496094 60.597656 Z M 84.792969 61.425781 L 83.820313 61.167969 L 84.390625 61.992188 Z M 86.414063 59.128906 L 86.8125 58.792969 C 87.003906 59.007813 87.113281 59.226563 87.128906 59.453125 C 87.148438 59.675781 87.085938 59.902344 86.9375 60.128906 C 86.753906 60.414063 86.507813 60.585938 86.195313 60.644531 C 85.882813 60.703125 85.558594 60.625 85.222656 60.410156 C 84.863281 60.179688 84.648438 59.910156 84.566406 59.601563 C 84.488281 59.289063 84.542969 58.984375 84.734375 58.683594 C 84.902344 58.421875 85.117188 58.257813 85.378906 58.195313 C 85.53125 58.15625 85.710938 58.167969 85.914063 58.226563 L 85.742188 58.722656 C 85.617188 58.675781 85.492188 58.671875 85.378906 58.710938 C 85.261719 58.75 85.167969 58.828125 85.09375 58.941406 C 84.992188 59.101563 84.964844 59.269531 85.015625 59.441406 C 85.066406 59.613281 85.21875 59.78125 85.476563 59.941406 C 85.746094 60.117188 85.96875 60.191406 86.148438 60.167969 C 86.324219 60.144531 86.464844 60.054688 86.5625 59.898438 C 86.636719 59.78125 86.664063 59.660156 86.644531 59.53125 C 86.625 59.398438 86.546875 59.265625 86.414063 59.128906 Z M 88.707031 56.785156 L 88.453125 57.277344 L 87.839844 57.210938 L 87.375 58.121094 L 87.792969 58.570313 L 87.542969 59.058594 L 85.730469 57.019531 L 85.976563 56.53125 Z M 87.378906 57.164063 L 86.378906 57.050781 L 87.0625 57.785156 Z M 86.476563 55.5 L 86.863281 54.644531 C 86.949219 54.453125 87.03125 54.3125 87.105469 54.222656 C 87.207031 54.105469 87.332031 54.019531 87.476563 53.972656 C 87.621094 53.921875 87.78125 53.902344 87.953125 53.917969 C 88.125 53.9375 88.316406 53.992188 88.535156 54.089844 C 88.726563 54.175781 88.878906 54.273438 88.996094 54.386719 C 89.140625 54.519531 89.238281 54.664063 89.292969 54.816406 C 89.335938 54.933594 89.347656 55.074219 89.332031 55.230469 C 89.316406 55.347656 89.273438 55.492188 89.195313 55.667969 L 88.796875 56.546875 Z M 87.082031 55.207031 L 88.617188 55.898438 L 88.773438 55.550781 C 88.832031 55.421875 88.867188 55.324219 88.878906 55.257813 C 88.894531 55.175781 88.890625 55.097656 88.867188 55.027344 C 88.84375 54.957031 88.789063 54.882813 88.699219 54.804688 C 88.609375 54.726563 88.472656 54.644531 88.296875 54.5625 C 88.117188 54.484375 87.972656 54.4375 87.863281 54.425781 C 87.75 54.414063 87.65625 54.425781 87.578125 54.457031 C 87.496094 54.488281 87.429688 54.542969 87.371094 54.621094 C 87.328125 54.679688 87.261719 54.804688 87.175781 54.996094 Z M 89.8125 54.15625 L 87.402344 53.339844 L 88.003906 51.554688 L 88.410156 51.691406 L 87.972656 52.988281 L 88.507813 53.167969 L 88.914063 51.964844 L 89.324219 52.101563 L 88.914063 53.308594 L 89.570313 53.527344 L 90.023438 52.183594 L 90.429688 52.324219 Z M 90.570313 51.917969 L 88.121094 51.222656 L 88.332031 50.480469 L 90.125 50.515625 L 88.578125 49.609375 L 88.789063 48.863281 L 91.238281 49.558594 L 91.109375 50.015625 L 89.179688 49.472656 L 90.972656 50.5 L 90.835938 50.976563 L 88.773438 50.910156 L 90.699219 51.460938 Z M 91.421875 48.402344 L 90.367188 48.214844 L 88.75 48.875 L 88.855469 48.28125 L 89.953125 47.867188 L 89.066406 47.113281 L 89.167969 46.53125 L 90.460938 47.707031 L 91.511719 47.894531 Z M 91.421875 48.402344 "/>
<path style=" stroke:none;fill-rule:evenodd;fill:rgb(100%,100%,100%);fill-opacity:1;" d="M 40.734375 63.414063 L 41.472656 63.835938 C 41.351563 64.09375 41.3125 64.324219 41.363281 64.519531 C 41.414063 64.71875 41.542969 64.894531 41.757813 65.046875 C 41.984375 65.207031 42.191406 65.28125 42.375 65.269531 C 42.554688 65.253906 42.695313 65.183594 42.785156 65.054688 C 42.84375 64.96875 42.871094 64.882813 42.863281 64.789063 C 42.859375 64.699219 42.808594 64.585938 42.71875 64.457031 C 42.65625 64.371094 42.503906 64.1875 42.265625 63.90625 C 41.953125 63.542969 41.773438 63.238281 41.71875 62.992188 C 41.640625 62.644531 41.703125 62.335938 41.898438 62.058594 C 42.027344 61.878906 42.195313 61.746094 42.40625 61.664063 C 42.621094 61.578125 42.847656 61.5625 43.097656 61.617188 C 43.34375 61.671875 43.601563 61.792969 43.871094 61.984375 C 44.308594 62.296875 44.570313 62.628906 44.652344 62.980469 C 44.734375 63.332031 44.664063 63.671875 44.445313 64.007813 L 43.71875 63.527344 C 43.816406 63.324219 43.84375 63.148438 43.804688 63 C 43.761719 62.851563 43.640625 62.703125 43.445313 62.5625 C 43.238281 62.417969 43.050781 62.347656 42.875 62.351563 C 42.761719 62.351563 42.671875 62.398438 42.609375 62.488281 C 42.546875 62.574219 42.535156 62.667969 42.5625 62.777344 C 42.597656 62.917969 42.757813 63.148438 43.042969 63.472656 C 43.328125 63.796875 43.519531 64.0625 43.621094 64.265625 C 43.726563 64.472656 43.769531 64.679688 43.753906 64.898438 C 43.742188 65.113281 43.65625 65.332031 43.496094 65.554688 C 43.355469 65.753906 43.164063 65.902344 42.929688 66 C 42.691406 66.09375 42.441406 66.113281 42.179688 66.050781 C 41.914063 65.992188 41.628906 65.855469 41.328125 65.636719 C 40.882813 65.324219 40.617188 64.980469 40.527344 64.605469 C 40.433594 64.234375 40.503906 63.835938 40.734375 63.414063 Z M 43.429688 66.84375 L 45.386719 63.023438 L 46.164063 63.417969 L 45.390625 64.925781 L 46.894531 65.695313 L 47.667969 64.191406 L 48.441406 64.585938 L 46.484375 68.410156 L 45.707031 68.011719 L 46.566406 66.34375 L 45.058594 65.570313 L 44.203125 67.242188 Z M 51.03125 69.945313 L 50.144531 69.644531 L 50.105469 68.601563 L 48.476563 68.046875 L 47.824219 68.859375 L 46.953125 68.566406 L 49.910156 65.03125 L 50.78125 65.324219 Z M 50.074219 67.824219 L 50.015625 66.125 L 48.957031 67.445313 Z M 51.535156 69.902344 L 52.292969 65.671875 L 53.121094 65.820313 L 54.355469 68.964844 L 54.859375 66.132813 L 55.652344 66.273438 L 54.898438 70.503906 L 54.042969 70.347656 L 52.824219 67.261719 L 52.328125 70.042969 Z M 55.804688 70.59375 L 55.695313 66.300781 L 56.996094 66.265625 L 57.839844 69.175781 L 58.527344 66.226563 L 59.832031 66.195313 L 59.941406 70.488281 L 59.136719 70.507813 L 59.050781 67.128906 L 58.289063 70.53125 L 57.453125 70.550781 L 56.523438 67.191406 L 56.605469 70.574219 Z M 60.050781 66.238281 L 60.90625 66.085938 L 61.316406 68.378906 C 61.382813 68.742188 61.433594 68.976563 61.472656 69.078125 C 61.542969 69.246094 61.652344 69.371094 61.808594 69.449219 C 61.960938 69.53125 62.15625 69.550781 62.394531 69.507813 C 62.632813 69.464844 62.804688 69.382813 62.910156 69.261719 C 63.015625 69.140625 63.066406 69.007813 63.0625 68.859375 C 63.0625 68.707031 63.035156 68.46875 62.972656 68.132813 L 62.554688 65.792969 L 63.410156 65.640625 L 63.808594 67.863281 C 63.898438 68.371094 63.941406 68.734375 63.933594 68.953125 C 63.921875 69.167969 63.871094 69.363281 63.773438 69.527344 C 63.675781 69.695313 63.53125 69.839844 63.339844 69.960938 C 63.144531 70.085938 62.882813 70.175781 62.550781 70.234375 C 62.148438 70.308594 61.835938 70.316406 61.609375 70.257813 C 61.386719 70.203125 61.199219 70.109375 61.050781 69.984375 C 60.902344 69.855469 60.796875 69.714844 60.730469 69.554688 C 60.628906 69.324219 60.539063 68.96875 60.453125 68.496094 Z M 66.449219 67.550781 L 66.214844 66.863281 L 67.984375 66.261719 L 68.535156 67.886719 C 68.417969 68.113281 68.21875 68.34375 67.9375 68.582031 C 67.652344 68.820313 67.34375 68.996094 67.007813 69.109375 C 66.582031 69.253906 66.183594 69.289063 65.804688 69.214844 C 65.429688 69.144531 65.105469 68.96875 64.832031 68.6875 C 64.5625 68.410156 64.359375 68.074219 64.226563 67.683594 C 64.082031 67.257813 64.046875 66.851563 64.109375 66.460938 C 64.175781 66.070313 64.351563 65.730469 64.632813 65.4375 C 64.847656 65.214844 65.148438 65.039063 65.539063 64.90625 C 66.042969 64.734375 66.472656 64.707031 66.828125 64.824219 C 67.183594 64.941406 67.464844 65.171875 67.675781 65.519531 L 66.910156 65.949219 C 66.785156 65.769531 66.621094 65.648438 66.425781 65.585938 C 66.230469 65.523438 66.011719 65.53125 65.773438 65.609375 C 65.417969 65.730469 65.171875 65.941406 65.035156 66.242188 C 64.902344 66.542969 64.910156 66.914063 65.0625 67.363281 C 65.226563 67.847656 65.457031 68.175781 65.753906 68.34375 C 66.050781 68.511719 66.371094 68.539063 66.71875 68.421875 C 66.890625 68.363281 67.050781 68.269531 67.199219 68.144531 C 67.351563 68.019531 67.46875 67.886719 67.5625 67.746094 L 67.386719 67.230469 Z M 69.464844 68.125 L 67.503906 64.300781 L 68.277344 63.90625 L 69.050781 65.410156 L 70.558594 64.640625 L 69.785156 63.132813 L 70.558594 62.738281 L 72.519531 66.558594 L 71.746094 66.957031 L 70.886719 65.285156 L 69.382813 66.058594 L 70.238281 67.726563 Z M 76.4375 63.847656 L 75.675781 64.390625 L 74.804688 63.808594 L 73.402344 64.808594 L 73.675781 65.8125 L 72.929688 66.34375 L 71.796875 61.878906 L 72.542969 61.34375 Z M 74.152344 63.382813 L 72.746094 62.433594 L 73.195313 64.0625 Z M 74.152344 63.382813 "/>
<path style=" stroke:none;fill-rule:evenodd;fill:rgb(20.384216%,21.556091%,58.789063%);fill-opacity:1;" d="M 53.9375 50.917969 L 61.410156 50.917969 C 61.667969 51.621094 61.890625 52.714844 61.410156 52.902344 C 59.039063 53.816406 56.449219 53.914063 53.9375 52.902344 C 53.492188 52.722656 53.71875 51.578125 53.9375 50.917969 Z M 53.9375 50.917969 "/>
<path style=" stroke:none;fill-rule:evenodd;fill:rgb(20.384216%,21.556091%,58.789063%);fill-opacity:1;" d="M 53.9375 50.917969 L 61.410156 50.917969 C 61.894531 50.917969 61.890625 52.714844 61.410156 52.902344 C 59.039063 53.816406 56.449219 53.914063 53.9375 52.902344 C 53.492188 52.722656 53.492188 50.917969 53.9375 50.917969 Z M 53.9375 50.917969 "/>
</g>
</svg>
